# xmcd
#
# Track frame offsets:
#	150
#	15005
#	38198
#	60125
#	87468
#	106058
#	126588
#	147993
#	167493
#	185228
#
# Disc length: 2718 seconds
#
# Revision: 0
# Processed by: cddbd v1.5.2PL0 Copyright (c) Steve Scherf et al.
# Submitted via: EasyCDDAExtractor 16.0.9.1
#
DISCID=7c0a9c0a
DTITLE=Various Artist - LHCD - Ngợi Ca Mùa Xuân
DYEAR=1995
DGENRE=Pop
TTITLE0=Hương Lan, Phương Hồng Quế, Trang Thanh Lan - Bài Ngợi Ca Mùa Xuân
TTITLE1=Phương Hồng Quế - Hoa Xuân
TTITLE2=Hương Lan, Phương Hồng Quế, Trang Thanh Lan - Xuân Xa Vắng
TTITLE3=Hương Lan - Xuân Mơ Ước
TTITLE4=Trang Thanh Lan - Mùa Xuân Gửi Em
TTITLE5=Hương Lan and Quang Bình - Vui Ca Trong Nắng Xuân
TTITLE6=Ngọc Bích - Khi Mùa Xuân Đến
TTITLE7=Hương Lan - Gái Xuân
TTITLE8=Ngọc Bích - Mùa Xuân Gọi
TTITLE9=Hương Lan, Phương Hồng Quế, Quang Bình, Trang Thanh Lan - Khúc Hát Tha
TTITLE9=nh Xuân
EXTD=
EXTT0=
EXTT1=
EXTT2=
EXTT3=
EXTT4=
EXTT5=
EXTT6=
EXTT7=
EXTT8=
EXTT9=
PLAYORDER=
